<?xml version="1.0" encoding="iso-8859-1"?>
<svg
    width="15"
    height="14"
    viewBox="0 0 15 14"
    fill="none"
    xmlns="http://www.w3.org/2000/svg"
  >
    <path
      d="M6 4.21515H7.15469V9.50109C7.15469 9.56984 7.21094 9.62609 7.27969 9.62609H8.21719C8.28594 9.62609 8.34219 9.56984 8.34219 9.50109V4.21515H9.5C9.60469 4.21515 9.6625 4.09484 9.59844 4.01359L7.84844 1.79796C7.83674 1.78302 7.8218 1.77094 7.80475 1.76263C7.78769 1.75432 7.76897 1.75 7.75 1.75C7.73103 1.75 7.71231 1.75432 7.69525 1.76263C7.67819 1.77094 7.66326 1.78302 7.65156 1.79796L5.90156 4.01202C5.8375 4.09484 5.89531 4.21515 6 4.21515ZM13.4688 9.03234H12.5312C12.4625 9.03234 12.4062 9.08859 12.4062 9.15734V11.5636H3.09375V9.15734C3.09375 9.08859 3.0375 9.03234 2.96875 9.03234H2.03125C1.9625 9.03234 1.90625 9.08859 1.90625 9.15734V12.2511C1.90625 12.5276 2.12969 12.7511 2.40625 12.7511H13.0938C13.3703 12.7511 13.5938 12.5276 13.5938 12.2511V9.15734C13.5938 9.08859 13.5375 9.03234 13.4688 9.03234Z"
    />
  </svg>